PathFileType	4	(X/Y/Z)	./resultDataOpenSim/trcMotMarkerGrf/sub09/qtm-01-03.trc
DataRate	CameraRate	NumFrames	NumMarkers	Units	OrigDataRate	OrigDataStartFrame	OrigNumFrames
250.000000	250.000000	7	24	m	250.000000	233	465
Frame#	Time	L.Toe.Tip			R.Toe.Tip			L.Ankle.Lat			R.Ankle.Lat			L.Ankle.Med			R.Ankle.Med			L.Heel			R.Heel			L.Knee.Lat			R.Knee.Lat			L.Knee.Med			R.Knee.Med			L.Thigh.Upper			R.Thigh.Upper			L.ASIS			R.ASIS			V.Sacral			L.Acromium			R.Acromium			C7			L.Elbow			R.Elbow			L.Wrist.Lat			R.Wrist.Lat
		X1	Y1	Z1	X2	Y2	Z2	X3	Y3	Z3	X4	Y4	Z4	X5	Y5	Z5	X6	Y6	Z6	X7	Y7	Z7	X8	Y8	Z8	X9	Y9	Z9	X10	Y10	Z10	X11	Y11	Z11	X12	Y12	Z12	X13	Y13	Z13	X14	Y14	Z14	X15	Y15	Z15	X16	Y16	Z16	X17	Y17	Z17	X18	Y18	Z18	X19	Y19	Z19	X20	Y20	Z20	X21	Y21	Z21	X22	Y22	Z22	X23	Y23	Z23	X24	Y24	Z24

233	0.928	0.14478921	0.039378005	0.011153427	0.30264036	0.10789922	0.13163124	-0.0024002559	0.075828734	-0.028846949	0.16146353	0.15276055	0.14961999	0.017447056	0.095572521	0.067678668	0.18981912	0.18195333	0.057442265	-0.075781007	0.046469929	0.015953218	0.094988025	0.13963654	0.094037585	0.10787327	0.47713769	-0.086343399	0.33836081	0.56761288	0.19023695	0.10455317	0.48031526	0.039315029	0.3380506	0.55348051	0.063725962	0.12195692	0.9014391	-0.14517202	0.12137514	0.91430551	0.22470531	0.20972948	0.98625654	-0.083741055	0.19833787	0.99895725	0.15394143	0.04610864	1.0493552	0.033141096	0.23460713	1.4375012	-0.12392999	0.17707762	1.4546296	0.20046526	0.14138231	1.4988441	0.029601319	0.094198524	1.0955166	-0.20331123	0.017221069	1.127942	0.27825125	0.27533738	0.89438457	-0.20248026	0.13726301	0.88594865	0.31568488
234	0.932	0.14480837	0.039359149	0.011139846	0.32218677	0.10691304	0.13069957	-0.00240727	0.075942391	-0.028659817	0.17996022	0.14815225	0.14920966	0.01778727	0.095659983	0.067719429	0.20730838	0.17831736	0.057105056	-0.075768044	0.046711799	0.016246633	0.11390497	0.13354204	0.093645883	0.10885708	0.47707502	-0.086317726	0.34612134	0.56807508	0.19013875	0.1057722	0.48024498	0.039331215	0.34556982	0.55380232	0.063629361	0.12736553	0.9010806	-0.14505607	0.1276744	0.91381735	0.22483162	0.21546784	0.98571509	-0.083932438	0.20449282	0.99854225	0.15388084	0.051859551	1.048791	0.033327229	0.24043376	1.4370589	-0.12406873	0.18298637	1.4541538	0.20037975	0.14714826	1.4983986	0.029352645	0.10043332	1.0947124	-0.20360753	0.023257882	1.1274347	0.27813845	0.28276959	0.8946797	-0.20211335	0.1424588	0.88532556	0.3160167
235	0.936	0.14481847	0.039340086	0.011110532	0.3417199	0.10596149	0.12975683	-0.002424293	0.076056607	-0.028450661	0.19865926	0.14361118	0.14874428	0.018052553	0.095747453	0.067833585	0.2248883	0.17474397	0.056772477	-0.075754433	0.046945667	0.016563827	0.13288473	0.127588	0.093242558	0.10978935	0.47701158	-0.086295403	0.35371171	0.56838481	0.19004765	0.10660006	0.48027491	0.039539045	0.35291526	0.55393934	0.063699064	0.13271308	0.90068169	-0.14496491	0.13399275	0.91325655	0.22496006	0.22121074	0.98512296	-0.084132984	0.21066424	0.99804686	0.15381425	0.056743982	1.0482764	0.031643468	0.24624794	1.4365652	-0.12422307	0.18891142	1.4536157	0.20029853	0.1529296	1.4978751	0.029129077	0.10682833	1.0938483	-0.20405518	0.028750507	1.1268853	0.27735634	0.2901882	0.89490991	-0.20173906	0.14768088	0.88463914	0.31635654
236	0.94	0.14481053	0.039320752	0.011081598	0.36126998	0.10502772	0.12880447	-0.0024663318	0.076182324	-0.028210721	0.21755235	0.13912929	0.1482341	0.018253934	0.095853147	0.068005824	0.24256796	0.17123587	0.056452347	-0.075759528	0.04718349	0.016927193	0.15201	0.12177424	0.092811477	0.11060445	0.47694304	-0.086271014	0.36116223	0.56855322	0.1899656	0.10732515	0.48033551	0.039758069	0.36013208	0.55393168	0.06389122	0.13799955	0.90023501	-0.14491366	0.14033018	0.91262335	0.22509115	0.22696236	0.98448127	-0.084339212	0.21684875	0.99747295	0.15373886	0.061512178	1.047717	0.029638787	0.25205573	1.4360224	-0.12438269	0.19483201	1.4530116	0.2002205	0.15877396	1.4972888	0.029017599	0.11326173	1.0929481	-0.20452349	0.033906642	1.1263098	0.27631402	0.29759378	0.89506948	-0.20135534	0.15292981	0.88388874	0.31670418
237	0.944	0.14476891	0.039307856	0.011062061	0.38084231	0.1041056	0.12785882	-0.0025362468	0.076327155	-0.027937408	0.23647404	0.13475838	0.14773571	0.0184388	0.095982894	0.068211205	0.26033651	0.16780321	0.05614884	-0.075783118	0.04742801	0.017347664	0.17130398	0.11610157	0.092335442	0.1112879	0.47686826	-0.086238484	0.36849558	0.56858422	0.18989111	0.10829022	0.48036529	0.039821161	0.36731231	0.55381014	0.064113447	0.14324442	0.89973775	-0.14489092	0.14668062	0.91191417	0.22522445	0.23272416	0.98379122	-0.084546003	0.22305118	0.99681868	0.15365556	0.066744022	1.047052	0.028513216	0.25786181	1.4354219	-0.12453409	0.20073966	1.4523411	0.20014814	0.16465245	1.4966487	0.028955465	0.11957038	1.0920089	-0.20482392	0.039083271	1.1257191	0.27553776	0.30498311	0.89515296	-0.20096196	0.15820381	0.88307482	0.31705742
238	0.948	0.14468942	0.039308468	0.011051525	0.40041044	0.10322177	0.12694529	-0.0026315035	0.076495113	-0.027622021	0.25522566	0.13056446	0.14730495	0.018647873	0.096135637	0.068444224	0.27818444	0.16446077	0.055852533	-0.075815877	0.047682884	0.017833757	0.19067958	0.11060352	0.091878353	0.11192855	0.4767955	-0.086211335	0.37572843	0.56849231	0.189833	0.10951668	0.48036587	0.039767472	0.37450612	0.55356191	0.064315886	0.14847836	0.89919664	-0.14487216	0.15303401	0.91112511	0.22535946	0.23849578	0.98305362	-0.084752653	0.22928145	0.99608263	0.15357071	0.072494409	1.0462806	0.028381631	0.26366914	1.4347553	-0.12466807	0.20663887	1.4516099	0.20008504	0.17050164	1.4959509	0.028826506	0.12572321	1.0910048	-0.2049194	0.044493318	1.1251195	0.27525999	0.31235264	0.89516212	-0.20056078	0.16350417	0.88220264	0.31741614
239	0.952	0.14460651	0.039320581	0.011035375	0.41994345	0.10242642	0.126088	-0.0027439461	0.076683828	-0.027247655	0.27381381	0.12655978	0.14693556	0.018904142	0.096312405	0.068720162	0.29610519	0.1612223	0.055551487	-0.075844333	0.047960591	0.018401119	0.21001797	0.10532737	0.091537563	0.11264632	0.4767401	-0.086215826	0.38285926	0.56828555	0.18981147	0.11086235	0.48036229	0.039700901	0.38166397	0.5531386	0.064514451	0.15372742	0.89862264	-0.14484605	0.15938331	0.91025732	0.22549759	0.24427985	0.98227155	-0.084966576	0.23554681	0.99526573	0.15349136	0.078502416	1.0454283	0.028736002	0.26947955	1.4340261	-0.12478334	0.21253483	1.4508259	0.20003219	0.17629475	1.495191	0.028602681	0.13185253	1.0899226	-0.20496157	0.05016306	1.1244937	0.27538562	0.31970006	0.89510571	-0.2001523	0.16884178	0.8812806	0.3177861
